HIERARCHY
ROOT Hips
{
  OFFSET 0.000000 95.000000 0.000000
  CHANNELS 6 Xposition Yposition Zposition Zrotation Xrotation Yrotation
  JOINT Spine
  {
    OFFSET 0.000000 10.000000 0.000000
    CHANNELS 3 Zrotation Xrotation Yrotation
    JOINT Spine1
    {
      OFFSET 0.000000 12.000000 0.000000
      CHANNELS 3 Zrotation Xrotation Yrotation
      JOINT Spine2
      {
        OFFSET 0.000000 12.000000 0.000000
        CHANNELS 3 Zrotation Xrotation Yrotation
        JOINT Neck
        {
          OFFSET 0.000000 10.000000 0.000000
          CHANNELS 3 Zrotation Xrotation Yrotation
          JOINT Head
          {
            OFFSET 0.000000 8.000000 0.000000
            CHANNELS 3 Zrotation Xrotation Yrotation
            End Site
            {
              OFFSET 0.000000 10.000000 0.000000
            }
          }
        }
        JOINT LeftShoulder
        {
          OFFSET 6.000000 8.000000 0.000000
          CHANNELS 3 Zrotation Xrotation Yrotation
          JOINT LeftArm
          {
            OFFSET 12.000000 0.000000 0.000000
            CHANNELS 3 Zrotation Xrotation Yrotation
            JOINT LeftForeArm
            {
              OFFSET 24.000000 0.000000 0.000000
              CHANNELS 3 Zrotation Xrotation Yrotation
              JOINT LeftHand
              {
                OFFSET 22.000000 0.000000 0.000000
                CHANNELS 3 Zrotation Xrotation Yrotation
                JOINT LeftHandThumb1
                {
                  OFFSET 1.800000 -1.400000 0.500000
                  CHANNELS 3 Zrotation Xrotation Yrotation
                  JOINT LeftHandThumb2
                  {
                    OFFSET 2.400000 0.000000 0.000000
                    CHANNELS 3 Zrotation Xrotation Yrotation
                    JOINT LeftHandThumb3
                    {
                      OFFSET 1.900000 0.000000 0.000000
                      CHANNELS 3 Zrotation Xrotation Yrotation
                      End Site
                      {
                        OFFSET 1.600000 0.000000 0.000000
                      }
                    }
                  }
                }
                JOINT LeftHandIndex1
                {
                  OFFSET 6.600000 1.200000 0.300000
                  CHANNELS 3 Zrotation Xrotation Yrotation
                  JOINT LeftHandIndex2
                  {
                    OFFSET 2.000000 0.000000 0.000000
                    CHANNELS 3 Zrotation Xrotation Yrotation
                    JOINT LeftHandIndex3
                    {
                      OFFSET 1.200000 0.000000 0.000000
                      CHANNELS 3 Zrotation Xrotation Yrotation
                      End Site
                      {
                        OFFSET 1.000000 0.000000 0.000000
                      }
                    }
                  }
                }
                JOINT LeftHandMiddle1
                {
                  OFFSET 7.200000 0.000000 0.300000
                  CHANNELS 3 Zrotation Xrotation Yrotation
                  JOINT LeftHandMiddle2
                  {
                    OFFSET 3.000000 0.000000 0.000000
                    CHANNELS 3 Zrotation Xrotation Yrotation
                    JOINT LeftHandMiddle3
                    {
                      OFFSET 2.000000 0.000000 0.000000
                      CHANNELS 3 Zrotation Xrotation Yrotation
                      End Site
                      {
                        OFFSET 1.600000 0.000000 0.000000
                      }
                    }
                  }
                }
                JOINT LeftHandRing1
                {
                  OFFSET 7.100000 -1.000000 0.400000
                  CHANNELS 3 Zrotation Xrotation Yrotation
                  JOINT LeftHandRing2
                  {
                    OFFSET 2.600000 0.000000 0.000000
                    CHANNELS 3 Zrotation Xrotation Yrotation
                    JOINT LeftHandRing3
                    {
                      OFFSET 1.600000 0.000000 0.000000
                      CHANNELS 3 Zrotation Xrotation Yrotation
                      End Site
                      {
                        OFFSET 1.300000 0.000000 0.000000
                      }
                    }
                  }
                }
                JOINT LeftHandPinky1
                {
                  OFFSET 6.500000 -2.000000 0.500000
                  CHANNELS 3 Zrotation Xrotation Yrotation
                  JOINT LeftHandPinky2
                  {
                    OFFSET 1.900000 0.000000 0.000000
                    CHANNELS 3 Zrotation Xrotation Yrotation
                    JOINT LeftHandPinky3
                    {
                      OFFSET 1.400000 0.000000 0.000000
                      CHANNELS 3 Zrotation Xrotation Yrotation
                      End Site
                      {
                        OFFSET 1.300000 0.000000 0.000000
                      }
                    }
                  }
                }
              }
            }
          }
        }
        JOINT RightShoulder
        {
          OFFSET -6.000000 8.000000 0.000000
          CHANNELS 3 Zrotation Xrotation Yrotation
          JOINT RightArm
          {
            OFFSET -12.000000 0.000000 0.000000
            CHANNELS 3 Zrotation Xrotation Yrotation
            JOINT RightForeArm
            {
              OFFSET -24.000000 0.000000 0.000000
              CHANNELS 3 Zrotation Xrotation Yrotation
              JOINT RightHand
              {
                OFFSET -22.000000 0.000000 0.000000
                CHANNELS 3 Zrotation Xrotation Yrotation
                JOINT RightHandThumb1
                {
                  OFFSET -1.800000 -1.400000 0.500000
                  CHANNELS 3 Zrotation Xrotation Yrotation
                  JOINT RightHandThumb2
                  {
                    OFFSET -2.400000 0.000000 0.000000
                    CHANNELS 3 Zrotation Xrotation Yrotation
                    JOINT RightHandThumb3
                    {
                      OFFSET -1.900000 0.000000 0.000000
                      CHANNELS 3 Zrotation Xrotation Yrotation
                      End Site
                      {
                        OFFSET -1.600000 0.000000 0.000000
                      }
                    }
                  }
                }
                JOINT RightHandIndex1
                {
                  OFFSET -6.600000 1.200000 0.300000
                  CHANNELS 3 Zrotation Xrotation Yrotation
                  JOINT RightHandIndex2
                  {
                    OFFSET -2.000000 0.000000 0.000000
                    CHANNELS 3 Zrotation Xrotation Yrotation
                    JOINT RightHandIndex3
                    {
                      OFFSET -1.200000 0.000000 0.000000
                      CHANNELS 3 Zrotation Xrotation Yrotation
                      End Site
                      {
                        OFFSET -1.000000 0.000000 0.000000
                      }
                    }
                  }
                }
                JOINT RightHandMiddle1
                {
                  OFFSET -7.200000 0.000000 0.300000
                  CHANNELS 3 Zrotation Xrotation Yrotation
                  JOINT RightHandMiddle2
                  {
                    OFFSET -3.000000 0.000000 0.000000
                    CHANNELS 3 Zrotation Xrotation Yrotation
                    JOINT RightHandMiddle3
                    {
                      OFFSET -2.000000 0.000000 0.000000
                      CHANNELS 3 Zrotation Xrotation Yrotation
                      End Site
                      {
                        OFFSET -1.600000 0.000000 0.000000
                      }
                    }
                  }
                }
                JOINT RightHandRing1
                {
                  OFFSET -7.100000 -1.000000 0.400000
                  CHANNELS 3 Zrotation Xrotation Yrotation
                  JOINT RightHandRing2
                  {
                    OFFSET -2.600000 0.000000 0.000000
                    CHANNELS 3 Zrotation Xrotation Yrotation
                    JOINT RightHandRing3
                    {
                      OFFSET -1.600000 0.000000 0.000000
                      CHANNELS 3 Zrotation Xrotation Yrotation
                      End Site
                      {
                        OFFSET -1.300000 0.000000 0.000000
                      }
                    }
                  }
                }
                JOINT RightHandPinky1
                {
                  OFFSET -6.500000 -2.000000 0.500000
                  CHANNELS 3 Zrotation Xrotation Yrotation
                  JOINT RightHandPinky2
                  {
                    OFFSET -1.900000 0.000000 0.000000
                    CHANNELS 3 Zrotation Xrotation Yrotation
                    JOINT RightHandPinky3
                    {
                      OFFSET -1.400000 0.000000 0.000000
                      CHANNELS 3 Zrotation Xrotation Yrotation
                      End Site
                      {
                        OFFSET -1.300000 0.000000 0.000000
                      }
                    }
                  }
                }
              }
            }
          }
        }
      }
    }
  }
  JOINT LeftUpLeg
  {
    OFFSET 10.000000 -5.000000 0.000000
    CHANNELS 3 Zrotation Xrotation Yrotation
    JOINT LeftLeg
    {
      OFFSET 0.000000 -42.000000 0.000000
      CHANNELS 3 Zrotation Xrotation Yrotation
      JOINT LeftFoot
      {
        OFFSET 0.000000 -42.000000 4.000000
        CHANNELS 3 Zrotation Xrotation Yrotation
        End Site
        {
          OFFSET 0.000000 0.000000 12.000000
        }
      }
    }
  }
  JOINT RightUpLeg
  {
    OFFSET -10.000000 -5.000000 0.000000
    CHANNELS 3 Zrotation Xrotation Yrotation
    JOINT RightLeg
    {
      OFFSET 0.000000 -42.000000 0.000000
      CHANNELS 3 Zrotation Xrotation Yrotation
      JOINT RightFoot
      {
        OFFSET 0.000000 -42.000000 4.000000
        CHANNELS 3 Zrotation Xrotation Yrotation
        End Site
        {
          OFFSET 0.000000 0.000000 12.000000
        }
      }
    }
  }
}
MOTION
Frames: 9
Frame Time: 0.033333
0.0000 95.0000 0.0000 0.0000 0.0000 0.0000 0.0000 0.0000 0.0000 0.0000 0.0000 0.0000 0.0000 0.0000 0.0000 0.0000 0.0000 0.0000 0.0000 0.0000 0.0000 0.0000 0.0000 0.0000 -76.0655 3.3569 4.2907 -10.0074 -2.0774 4.0506 66.9539 -38.9691 -164.5821 65.2498 -14.3215 -11.5256 68.5525 0.0000 0.0000 24.6135 0.0000 0.0000 -60.4791 -5.9052 -23.6644 85.5140 0.0000 0.0000 83.1115 0.0000 0.0000 -53.2798 -7.0570 -18.7874 102.0479 0.0000 0.0000 74.5369 0.0000 0.0000 -44.0540 -7.0903 -17.0464 110.0000 0.0000 0.0000 90.0000 0.0000 0.0000 -44.1636 -5.4956 -11.7795 36.0097 0.0000 0.0000 90.0000 0.0000 0.0000 0.0000 0.0000 0.0000 81.9846 -3.6125 4.1563 3.9203 8.0400 10.1282 11.1159 20.4809 164.9634 -56.9418 -9.9538 -14.4714 2.9589 0.0000 0.0000 7.8688 0.0000 0.0000 12.9394 0.0757 -7.4970 5.0050 0.0000 0.0000 5.1650 0.0000 0.0000 1.6247 0.1167 -3.4427 6.3455 0.0000 0.0000 6.3076 0.0000 0.0000 -7.8473 -0.1110 -4.5781 8.1050 0.0000 0.0000 7.6471 0.0000 0.0000 -21.4821 -1.0500 -4.7788 8.0362 0.0000 0.0000 7.3521 0.0000 0.0000 0.0000 0.0000 0.0000 0.0000 0.0000 0.0000 0.0000 0.0000 0.0000 0.0000 0.0000 0.0000 0.0000 0.0000 0.0000 0.0000 0.0000 0.0000
0.0000 95.0000 0.0000 0.0000 0.0000 0.0000 0.0000 0.0000 0.0000 0.0000 0.0000 0.0000 0.0000 0.0000 0.0000 0.0000 0.0000 0.0000 0.0000 0.0000 0.0000 0.0000 0.0000 0.0000 -76.1948 3.2907 4.1964 -10.0054 -2.1440 4.1247 66.8158 -38.9199 -164.4901 65.2498 -14.3215 -11.5256 68.5525 0.0000 0.0000 24.6135 0.0000 0.0000 -60.4791 -5.9052 -23.6644 85.5140 0.0000 0.0000 83.1115 0.0000 0.0000 -53.2798 -7.0570 -18.7874 102.0479 0.0000 0.0000 74.5369 0.0000 0.0000 -44.0540 -7.0903 -17.0464 110.0000 0.0000 0.0000 90.0000 0.0000 0.0000 -44.1636 -5.4956 -11.7795 36.0097 0.0000 0.0000 90.0000 0.0000 0.0000 0.0000 0.0000 0.0000 82.0601 -3.6894 4.2392 4.0630 8.1704 10.3135 11.2600 20.7302 164.7446 -56.9418 -9.9538 -14.4714 2.9589 0.0000 0.0000 7.8688 0.0000 0.0000 12.9394 0.0757 -7.4970 5.0050 0.0000 0.0000 5.1650 0.0000 0.0000 1.6247 0.1167 -3.4427 6.3455 0.0000 0.0000 6.3076 0.0000 0.0000 -7.8473 -0.1110 -4.5781 8.1050 0.0000 0.0000 7.6471 0.0000 0.0000 -21.4821 -1.0500 -4.7788 8.0362 0.0000 0.0000 7.3521 0.0000 0.0000 0.0000 0.0000 0.0000 0.0000 0.0000 0.0000 0.0000 0.0000 0.0000 0.0000 0.0000 0.0000 0.0000 0.0000 0.0000 0.0000 0.0000 0.0000
0.0000 95.0000 0.0000 0.0000 0.0000 0.0000 0.0000 0.0000 0.0000 0.0000 0.0000 0.0000 0.0000 0.0000 0.0000 0.0000 0.0000 0.0000 0.0000 0.0000 0.0000 0.0000 0.0000 0.0000 -76.0950 3.3321 4.2569 -10.6263 -2.2486 4.4049 66.1021 -38.9903 -164.3385 65.2498 -14.3215 -11.5256 68.5525 0.0000 0.0000 24.6135 0.0000 0.0000 -60.4791 -5.9052 -23.6644 85.5140 0.0000 0.0000 83.1115 0.0000 0.0000 -53.2798 -7.0570 -18.7874 102.0479 0.0000 0.0000 74.5369 0.0000 0.0000 -44.0540 -7.0903 -17.0464 110.0000 0.0000 0.0000 90.0000 0.0000 0.0000 -44.1636 -5.4956 -11.7795 36.0097 0.0000 0.0000 90.0000 0.0000 0.0000 0.0000 0.0000 0.0000 82.0353 -3.6905 4.2423 4.4943 8.3536 10.6537 11.5694 21.0326 164.5353 -56.9418 -9.9538 -14.4714 2.9589 0.0000 0.0000 7.8688 0.0000 0.0000 12.9394 0.0757 -7.4970 5.0050 0.0000 0.0000 5.1650 0.0000 0.0000 1.6247 0.1167 -3.4427 6.3455 0.0000 0.0000 6.3076 0.0000 0.0000 -7.8473 -0.1110 -4.5781 8.1050 0.0000 0.0000 7.6471 0.0000 0.0000 -21.4821 -1.0500 -4.7788 8.0362 0.0000 0.0000 7.3521 0.0000 0.0000 0.0000 0.0000 0.0000 0.0000 0.0000 0.0000 0.0000 0.0000 0.0000 0.0000 0.0000 0.0000 0.0000 0.0000 0.0000 0.0000 0.0000 0.0000
0.0000 95.0000 0.0000 0.0000 0.0000 0.0000 0.0000 0.0000 0.0000 0.0000 0.0000 0.0000 0.0000 0.0000 0.0000 0.0000 0.0000 0.0000 0.0000 0.0000 0.0000 0.0000 0.0000 0.0000 -76.2532 3.3562 4.2755 -10.5393 -2.2461 4.3791 66.0126 -38.9699 -164.2908 65.2498 -14.3215 -11.5256 68.5525 0.0000 0.0000 24.6135 0.0000 0.0000 -60.4791 -5.9052 -23.6644 85.5140 0.0000 0.0000 83.1115 0.0000 0.0000 -53.2798 -7.0570 -18.7874 102.0479 0.0000 0.0000 74.5369 0.0000 0.0000 -44.0540 -7.0903 -17.0464 110.0000 0.0000 0.0000 90.0000 0.0000 0.0000 -44.1636 -5.4956 -11.7795 36.0097 0.0000 0.0000 90.0000 0.0000 0.0000 0.0000 0.0000 0.0000 82.0857 -3.7074 4.2580 4.6131 8.6082 10.9883 11.6099 21.3395 164.2140 -56.9418 -9.9538 -14.4714 2.9589 0.0000 0.0000 7.8688 0.0000 0.0000 12.9394 0.0757 -7.4970 5.0050 0.0000 0.0000 5.1650 0.0000 0.0000 1.6247 0.1167 -3.4427 6.3455 0.0000 0.0000 6.3076 0.0000 0.0000 -7.8473 -0.1110 -4.5781 8.1050 0.0000 0.0000 7.6471 0.0000 0.0000 -21.4821 -1.0500 -4.7788 8.0362 0.0000 0.0000 7.3521 0.0000 0.0000 0.0000 0.0000 0.0000 0.0000 0.0000 0.0000 0.0000 0.0000 0.0000 0.0000 0.0000 0.0000 0.0000 0.0000 0.0000 0.0000 0.0000 0.0000
0.0000 95.0000 0.0000 0.0000 0.0000 0.0000 0.0000 0.0000 0.0000 0.0000 0.0000 0.0000 0.0000 0.0000 0.0000 0.0000 0.0000 0.0000 0.0000 0.0000 0.0000 0.0000 0.0000 0.0000 -76.4221 3.4985 4.4432 -10.4574 -2.2504 4.3946 65.8368 -39.0913 -164.3554 65.2498 -14.3215 -11.5256 68.5525 0.0000 0.0000 24.6135 0.0000 0.0000 -60.4791 -5.9052 -23.6644 85.5140 0.0000 0.0000 83.1115 0.0000 0.0000 -53.2798 -7.0570 -18.7874 102.0479 0.0000 0.0000 74.5369 0.0000 0.0000 -44.0540 -7.0903 -17.0464 110.0000 0.0000 0.0000 90.0000 0.0000 0.0000 -44.1636 -5.4956 -11.7795 36.0097 0.0000 0.0000 90.0000 0.0000 0.0000 0.0000 0.0000 0.0000 81.8887 -3.8912 4.4846 5.5437 8.7750 11.5045 12.1796 21.9671 163.7618 -56.9418 -9.9538 -14.4714 2.9589 0.0000 0.0000 7.8688 0.0000 0.0000 12.9394 0.0757 -7.4970 5.0050 0.0000 0.0000 5.1650 0.0000 0.0000 1.6247 0.1167 -3.4427 6.3455 0.0000 0.0000 6.3076 0.0000 0.0000 -7.8473 -0.1110 -4.5781 8.1050 0.0000 0.0000 7.6471 0.0000 0.0000 -21.4821 -1.0500 -4.7788 8.0362 0.0000 0.0000 7.3521 0.0000 0.0000 0.0000 0.0000 0.0000 0.0000 0.0000 0.0000 0.0000 0.0000 0.0000 0.0000 0.0000 0.0000 0.0000 0.0000 0.0000 0.0000 0.0000 0.0000
0.0000 95.0000 0.0000 0.0000 0.0000 0.0000 0.0000 0.0000 0.0000 0.0000 0.0000 0.0000 0.0000 0.0000 0.0000 0.0000 0.0000 0.0000 0.0000 0.0000 0.0000 0.0000 0.0000 0.0000 -76.7252 3.0822 3.8935 -10.1400 -2.2027 4.1385 66.1200 -38.4939 -163.8569 65.2498 -14.3215 -11.5256 68.5525 0.0000 0.0000 24.6135 0.0000 0.0000 -60.4791 -5.9052 -23.6644 85.5140 0.0000 0.0000 83.1115 0.0000 0.0000 -53.2798 -7.0570 -18.7874 102.0479 0.0000 0.0000 74.5369 0.0000 0.0000 -44.0540 -7.0903 -17.0464 110.0000 0.0000 0.0000 90.0000 0.0000 0.0000 -44.1636 -5.4956 -11.7795 36.0097 0.0000 0.0000 90.0000 0.0000 0.0000 0.0000 0.0000 0.0000 81.3950 -3.5127 4.0839 6.2151 10.3385 13.7516 11.4864 23.3509 161.9485 -56.9418 -9.9538 -14.4714 2.9589 0.0000 0.0000 7.8688 0.0000 0.0000 12.9394 0.0757 -7.4970 5.0050 0.0000 0.0000 5.1650 0.0000 0.0000 1.6247 0.1167 -3.4427 6.3455 0.0000 0.0000 6.3076 0.0000 0.0000 -7.8473 -0.1110 -4.5781 8.1050 0.0000 0.0000 7.6471 0.0000 0.0000 -21.4821 -1.0500 -4.7788 8.0362 0.0000 0.0000 7.3521 0.0000 0.0000 0.0000 0.0000 0.0000 0.0000 0.0000 0.0000 0.0000 0.0000 0.0000 0.0000 0.0000 0.0000 0.0000 0.0000 0.0000 0.0000 0.0000 0.0000
0.0000 95.0000 0.0000 0.0000 0.0000 0.0000 0.0000 0.0000 0.0000 0.0000 0.0000 0.0000 0.0000 0.0000 0.0000 0.0000 0.0000 0.0000 0.0000 0.0000 0.0000 0.0000 0.0000 0.0000 -76.6945 3.2102 4.0573 -10.1020 -2.1037 4.0176 66.1701 -38.5456 -163.9226 65.2498 -14.3215 -11.5256 68.5525 0.0000 0.0000 24.6135 0.0000 0.0000 -60.4791 -5.9052 -23.6644 85.5140 0.0000 0.0000 83.1115 0.0000 0.0000 -53.2798 -7.0570 -18.7874 102.0479 0.0000 0.0000 74.5369 0.0000 0.0000 -44.0540 -7.0903 -17.0464 110.0000 0.0000 0.0000 90.0000 0.0000 0.0000 -44.1636 -5.4956 -11.7795 36.0097 0.0000 0.0000 90.0000 0.0000 0.0000 0.0000 0.0000 0.0000 81.0695 -3.6253 4.2390 6.4149 12.3721 16.5034 9.8947 25.5292 158.7761 -56.9418 -9.9538 -14.4714 2.9589 0.0000 0.0000 7.8688 0.0000 0.0000 12.9394 0.0757 -7.4970 5.0050 0.0000 0.0000 5.1650 0.0000 0.0000 1.6247 0.1167 -3.4427 6.3455 0.0000 0.0000 6.3076 0.0000 0.0000 -7.8473 -0.1110 -4.5781 8.1050 0.0000 0.0000 7.6471 0.0000 0.0000 -21.4821 -1.0500 -4.7788 8.0362 0.0000 0.0000 7.3521 0.0000 0.0000 0.0000 0.0000 0.0000 0.0000 0.0000 0.0000 0.0000 0.0000 0.0000 0.0000 0.0000 0.0000 0.0000 0.0000 0.0000 0.0000 0.0000 0.0000
0.0000 95.0000 0.0000 0.0000 0.0000 0.0000 0.0000 0.0000 0.0000 0.0000 0.0000 0.0000 0.0000 0.0000 0.0000 0.0000 0.0000 0.0000 0.0000 0.0000 0.0000 0.0000 0.0000 0.0000 -76.2180 4.2518 5.4192 -9.6191 -2.3397 4.5860 66.6940 -40.3560 -165.8845 65.2498 -14.3215 -11.5256 68.5525 0.0000 0.0000 24.6135 0.0000 0.0000 -60.4791 -5.9052 -23.6644 85.5140 0.0000 0.0000 83.1115 0.0000 0.0000 -53.2798 -7.0570 -18.7874 102.0479 0.0000 0.0000 74.5369 0.0000 0.0000 -44.0540 -7.0903 -17.0464 110.0000 0.0000 0.0000 90.0000 0.0000 0.0000 -44.1636 -5.4956 -11.7795 36.0097 0.0000 0.0000 90.0000 0.0000 0.0000 0.0000 0.0000 0.0000 79.3760 -5.9501 7.1670 8.0108 19.0782 26.6229 1.4445 34.0338 143.5054 -56.9418 -9.9538 -14.4714 2.9589 0.0000 0.0000 7.8688 0.0000 0.0000 12.9394 0.0757 -7.4970 5.0050 0.0000 0.0000 5.1650 0.0000 0.0000 1.6247 0.1167 -3.4427 6.3455 0.0000 0.0000 6.3076 0.0000 0.0000 -7.8473 -0.1110 -4.5781 8.1050 0.0000 0.0000 7.6471 0.0000 0.0000 -21.4821 -1.0500 -4.7788 8.0362 0.0000 0.0000 7.3521 0.0000 0.0000 0.0000 0.0000 0.0000 0.0000 0.0000 0.0000 0.0000 0.0000 0.0000 0.0000 0.0000 0.0000 0.0000 0.0000 0.0000 0.0000 0.0000 0.0000
0.0000 95.0000 0.0000 0.0000 0.0000 0.0000 0.0000 0.0000 0.0000 0.0000 0.0000 0.0000 0.0000 0.0000 0.0000 0.0000 0.0000 0.0000 0.0000 0.0000 0.0000 0.0000 0.0000 0.0000 -75.5030 5.6218 7.2563 -9.0831 -1.3799 3.4090 67.8047 -41.1789 -167.1018 65.2498 -14.3215 -11.5256 68.5525 0.0000 0.0000 24.6135 0.0000 0.0000 -60.4791 -5.9052 -23.6644 85.5140 0.0000 0.0000 83.1115 0.0000 0.0000 -53.2798 -7.0570 -18.7874 102.0479 0.0000 0.0000 74.5369 0.0000 0.0000 -44.0540 -7.0903 -17.0464 110.0000 0.0000 0.0000 90.0000 0.0000 0.0000 -44.1636 -5.4956 -11.7795 36.0097 0.0000 0.0000 90.0000 0.0000 0.0000 0.0000 0.0000 0.0000 78.2744 -8.8582 10.8745 8.1652 30.3951 41.0864 -19.2935 39.6906 116.0932 -56.9418 -9.9538 -14.4714 2.9589 0.0000 0.0000 7.8688 0.0000 0.0000 12.9394 0.0757 -7.4970 5.0050 0.0000 0.0000 5.1650 0.0000 0.0000 1.6247 0.1167 -3.4427 6.3455 0.0000 0.0000 6.3076 0.0000 0.0000 -7.8473 -0.1110 -4.5781 8.1050 0.0000 0.0000 7.6471 0.0000 0.0000 -21.4821 -1.0500 -4.7788 8.0362 0.0000 0.0000 7.3521 0.0000 0.0000 0.0000 0.0000 0.0000 0.0000 0.0000 0.0000 0.0000 0.0000 0.0000 0.0000 0.0000 0.0000 0.0000 0.0000 0.0000 0.0000 0.0000 0.0000
